# xmcd
#
# Track frame offsets: 
#        150
#        15973
#        39591
#        51925
#        64680
#        74755
#        88981
#        93335
#        104656
#        115684
#        126712
#        136276
#        144076
#        154691
#        168572
#        179788
#        196364
#        208924
#        223931
#
# Disc length: 3405 seconds
#
# Revision: 0
# Processed by: cddbd v1.5.1PL2 Copyright (c) Steve Scherf et al.
# Submitted via: ExactAudioCopy v0.95b1
#
DISCID=2b0d4b13
DTITLE=Johnny Cash - Live in Denmark
DYEAR=1971
DGENRE=Country
TTITLE0=A Boy Named Sue
TTITLE1=Sunday Mornin' Comin' Down
TTITLE2=I Walk The Line
TTITLE3=Blue Suede Shoes
TTITLE4=Matchbox
TTITLE5=Me And Bobby McGee
TTITLE6=Guess Things Happen That Way
TTITLE7=Bed Of Roses
TTITLE8=Flowers On The Wall
TTITLE9=Folsom Prison Blues
TTITLE10=Darlin' Companion
TTITLE11=If I Were A Carpenter
TTITLE12=Help Me Make It Through The Night
TTITLE13=Man In Black
TTITLE14=Introduction To The Carter Family (Instrumental)
TTITLE15=A Song To Mama
TTITLE16=No Need To Worry
TTITLE17=Rock Of Ages
TTITLE18=Children, Go Where I Send Thee
EXTD=
EXTT0=
EXTT1=
EXTT2=
EXTT3=
EXTT4=
EXTT5=
EXTT6=
EXTT7=
EXTT8=
EXTT9=
EXTT10=
EXTT11=
EXTT12=
EXTT13=
EXTT14=
EXTT15=
EXTT16=
EXTT17=
EXTT18=
PLAYORDER=
